/* XPM */
/* Generated by GIMP's "export to Xorg pixmap" option. */
char * crosshair_xpm[] = {
"32 32 3 1",
" 	c None",
".	c #000000",
"+	c #FFFFFF",
"              ....              ",
"             .++++.             ",
"             .++++.             ",
"             .++++.             ",
"             .++++.             ",
"             .++++.             ",
"             .++++.             ",
"             .++++.             ",
"             .++++.             ",
"             .++++.             ",
"             .++++.             ",
"             .++++.             ",
"             .++++.             ",
" ............++++++............ ",
".++++++++++++++..++++++++++++++.",
".+++++++++++++....+++++++++++++.",
".+++++++++++++....+++++++++++++.",
".++++++++++++++..++++++++++++++.",
" ............++++++............ ",
"             .++++.             ",
"             .++++.             ",
"             .++++.             ",
"             .++++.             ",
"             .++++.             ",
"             .++++.             ",
"             .++++.             ",
"             .++++.             ",
"             .++++.             ",
"             .++++.             ",
"             .++++.             ",
"             .++++.             ",
"              ....              "};
